<svg xmlns="http://www.w3.org/2000/svg" width="24" height="24" viewBox="0 0 24 24" role="presentation" focusable="false">
  <path d="M22 16.92v3a2 2 0 0 1-2.18 2 19.86 19.86 0 0 1-8.63-3.07 19.5 19.5 0 0 1-6-6 19.86 19.86 0 0 1-3.07-8.58A2 2 0 0 1 4.11 2h3a2 2 0 0 1 2 1.72 12 12 0 0 0 .69 2.75 2 2 0 0 1-.45 2.11L7.08 9.75a16 16 0 0 0 6 6l1.17-1.17a2 2 0 0 1 2.11-.45 12 12 0 0 0 2.75.69A2 2 0 0 1 22 16.92z" fill="none" stroke="currentColor" stroke-width="2" stroke-linecap="round" stroke-linejoin="round"></path>
</svg>
